<?xml version="1.0" standalone="no"?>
<!DOCTYPE svg PUBLIC "-//W3C//DTD SVG 20010904//EN"
 "http://www.w3.org/TR/2001/REC-SVG-20010904/DTD/svg10.dtd">
<svg version="1.0" xmlns="http://www.w3.org/2000/svg"
 width="1000.000000pt" height="1000.000000pt" viewBox="0 0 1000.000000 1000.000000"
 preserveAspectRatio="xMidYMid meet">

<g transform="translate(0.000000,1000.000000) scale(0.100000,-0.100000)"
fill="#000000" stroke="none">
<path d="M3314 8811 c-37 -23 -59 -77 -51 -127 16 -95 246 -306 552 -507 243
-158 372 -215 650 -286 215 -54 477 -80 835 -81 l155 -1 -35 -30 c-19 -17 -64
-47 -100 -67 -36 -20 -86 -53 -113 -73 -26 -21 -87 -61 -135 -90 -48 -29 -98
-62 -112 -75 -14 -12 -50 -41 -80 -63 -80 -59 -177 -176 -195 -234 -22 -73
-28 -182 -15 -282 45 -371 58 -828 42 -1527 -10 -415 -9 -457 8 -595 10 -81
22 -191 26 -244 8 -117 8 -117 -139 -179 -160 -68 -289 -135 -457 -238 -242
-149 -314 -200 -470 -334 -182 -156 -199 -174 -285 -282 -38 -48 -111 -141
-162 -205 -181 -230 -263 -419 -294 -682 -33 -284 27 -507 210 -784 99 -150
169 -228 290 -324 247 -197 487 -315 887 -436 288 -88 404 -108 739 -131 495
-34 752 -29 1230 21 822 87 1158 198 1266 421 18 38 19 51 11 112 -18 126 -60
179 -187 238 -178 81 -394 81 -745 0 -80 -19 -190 -39 -245 -46 -55 -6 -167
-22 -250 -35 -341 -54 -582 -70 -930 -62 -598 13 -945 91 -1363 304 -150 77
-191 104 -265 178 -179 179 -268 467 -208 675 66 232 150 362 389 604 205 207
428 387 641 515 149 91 366 200 401 204 22 2 30 -8 65 -79 105 -210 270 -366
508 -479 165 -78 225 -90 447 -90 207 1 320 16 480 67 341 108 604 315 726
571 l36 76 -4 133 c-3 124 -5 137 -32 190 -117 230 -404 327 -885 298 -257
-15 -618 -83 -801 -150 -110 -40 -221 -64 -231 -49 -27 45 -28 388 0 644 33
303 55 461 111 780 40 232 48 398 26 520 -10 50 -49 184 -87 298 -96 290 -95
316 27 417 65 55 328 212 490 293 237 118 418 181 780 267 311 75 339 82 389
105 100 44 153 136 141 244 -23 196 -255 354 -631 432 -76 16 -137 21 -255 21
-167 0 -262 -13 -475 -61 -304 -69 -702 -121 -926 -121 -347 0 -686 94 -1033
287 -190 105 -286 153 -309 153 -12 0 -36 -9 -53 -19z m2864 -4406 c87 -20
129 -46 149 -92 34 -82 -9 -184 -123 -292 -272 -259 -653 -277 -884 -42 -69
70 -133 177 -128 213 4 27 93 61 313 120 378 101 538 123 673 93z"/>
</g>
</svg>
