<svg xmlns="http://www.w3.org/2000/svg" xmlns:xlink="http://www.w3.org/1999/xlink" version="1.1" baseProfile="full" viewBox="0 0 200 200" width="200" height="200">
<g fill="black">
<path d="M 137.9 92.1 L 139.3 80.3 L 140.1 69.9 L 140.3 61.0 L 140.0 53.6 L 139.3 47.6 L 138.2 43.1 L 136.7 39.7 L 135.72450227737426 38.538693237304685 L 131.7 40.7 L 126.7 44.9 L 121.9 50.5 L 117.3 57.7 L 112.7 66.6 L 108.4 77.2 L 104.2 89.6 L 100.2 103.7 L 96.4 119.5 L 92.8 137.2 L 92.66387815475464 137.17091417312622 L 92.3 139.9 L 88.8 142.8 L 84.3 142.3 L 81.3 138.8 L 79.5 131.5 L 77.7 124.9 L 76.0 118.9 L 74.4 113.7 L 72.9 109.1 L 71.5 105.1 L 70.3 101.8 L 69.2 99.2 L 68.8634560585022 98.37733707427978 L 68.8 98.4 L 67.6 99.3 L 65.8 101.0 L 63.5 103.8 L 60.7 107.7 L 57.6 112.7 L 54.2 118.9 L 50.4 126.2 L 46.3 134.7 L 45.87924633026123 134.48372478485106 L 44.7 136.4 L 40.2 137.3 L 36.3 134.9 L 33.2 129.1 L 31.1 123.0 L 29.8 116.5 L 29.3 109.8 L 29.7 102.9 L 30.9 95.6 L 32.8 88.2 L 35.6 80.5 L 39.2 72.6 L 43.7 64.5 L 45.4 65.2 L 42.7 74.0 L 40.7 82.1 L 39.2 89.7 L 38.4 96.8 L 38.2 103.3 L 38.6 109.2 L 39.6 114.7 L 41.24892702102661 119.45278968811036 L 45.0 113.5 L 49.4 107.2 L 53.5 102.1 L 57.4 98.1 L 61.2 95.2 L 65.0 93.5 L 68.7 93.2 L 71.8 94.7 L 72.26976747512818 95.40465116500854 L 73.2 96.0 L 75.7 98.5 L 78.1 101.7 L 80.5 105.6 L 82.9 110.2 L 85.4 115.5 L 85.575 115.9375 L 89.9 100.8 L 94.7 86.4 L 99.8 73.7 L 105.2 62.8 L 110.9 53.6 L 116.9 46.2 L 123.3 40.8 L 130.0 37.3 L 134.86789665222167 36.440959453582764 L 135.2 35.5 L 139.3 37.0 L 142.9 40.6 L 145.6 45.8 L 147.6 52.5 L 148.8 60.6 L 149.4 70.0 L 149.3 80.9 L 148.6 93.2 L 147.3 106.9 L 146.1845652580261 115.26576089859009 L 151.9 115.5 L 161.7 117.6 L 169.2 121.7 L 173.2 128.7 L 171.4 136.5 L 165.3 142.9 L 155.4 149.0 L 141.2 155.1 L 122.2 161.1 L 98.2 166.8 L 97.7 165.1 L 121.1 157.5 L 139.1 150.1 L 152.2 143.3 L 160.4 137.1 L 164.0 132.4 L 164.1 130.5 L 162.9 129.5 L 158.6 127.9 L 150.8 126.8 L 140.2 126.9 L 140.18232851028444 126.47941789627075 L 138.5 126.9 L 134.6 124.5 L 133.5 120.0 L 136.0 105.3 Z " />
</g>
</svg>
