<svg xmlns="http://www.w3.org/2000/svg" xmlns:xlink="http://www.w3.org/1999/xlink" version="1.1" baseProfile="full" viewBox="0 0 200 200" width="200" height="200">
<g fill="black">
<path d="M 157.4 155.4 L 153.5 154.7 L 149.3 154.2 L 144.8 153.9 L 139.9 153.9 L 134.6 154.0 L 129.0 154.4 L 123.1 155.0 L 116.8 155.9 L 116.76830768585205 155.67815380096437 L 114.9 155.8 L 111.6 152.6 L 111.3 148.1 L 112.6 146.0 L 114.2 143.8 L 116.0 141.4 L 118.1 138.9 L 120.6 136.2 L 122.30526313781738 134.30526313781738 L 122.3 134.3 L 129.8 124.6 L 136.5 115.7 L 142.3 107.7 L 147.1 100.4 L 150.8 94.0 L 153.6 88.3 L 155.4 83.6 L 156.1 79.8 L 156.0 77.4 L 155.4 76.3 L 155.86178731918335 76.10446844100952 L 154.7 73.2 L 152.9 70.3 L 150.8 68.3 L 148.2 67.0 L 144.6 66.3 L 140.0 66.6 L 134.4 67.9 L 127.9 70.2 L 120.5 73.6 L 112.80883054733276 77.82076368331909 L 112.7 77.9 L 101.9 86.8 L 92.0 96.3 L 82.9 106.5 L 74.5 117.4 L 66.9 129.0 L 60.0 141.3 L 53.9 154.3 L 48.95639610290527 167.17202520370483 L 49.4 170.0 L 48.3 174.4 L 44.5 176.9 L 40.0 175.8 L 37.5 172.0 L 36.7 166.4 L 36.0 160.6 L 35.6 154.6 L 35.4 148.4 L 35.3 141.9 L 35.5 135.2 L 35.8 128.3 L 36.4 121.2 L 37.1 113.8 L 37.73062286376953 108.4747405052185 L 37.6 107.9 L 38.4 102.5 L 38.3 98.0 L 37.5 94.0 L 36.3 90.2 L 34.8 86.5 L 33.4 82.8 L 32.4 78.9 L 32.7 74.7 L 34.6 70.8 L 38.6 68.0 L 38.65813951492309 68.0581395149231 L 40.5 66.3 L 42.6 64.1 L 44.5 61.9 L 46.2 59.5 L 47.7 57.1 L 49.1 54.5 L 50.3 51.7 L 51.02711868286133 49.78305082321167 L 51.2 48.4 L 51.3 46.7 L 51.0 44.8 L 50.4 42.7 L 49.4 40.4 L 48.0 38.0 L 46.2 35.4 L 44.0 32.7 L 41.5 29.8 L 38.3 27.2 L 39.3 25.7 L 43.0 27.7 L 46.6 29.5 L 49.9 31.4 L 52.8 33.5 L 55.4 35.8 L 57.7 38.2 L 59.6 40.8 L 61.2 43.7 L 62.3 46.7 L 62.9993727684021 49.99704303741455 L 63.5 50.2 L 61.5 53.7 L 61.27241382598877 54.03103446960449 L 61.2 54.2 L 61.137974643707274 54.22658224105835 L 59.3 56.9 L 57.0 59.9 L 54.4 62.5 L 51.7 64.9 L 48.9 66.9 L 45.9 68.6 L 42.7 69.9 L 39.5 70.9 L 39.41741933822632 70.92322578430176 L 38.8 73.0 L 38.9 75.3 L 39.6 77.1 L 40.9 79.4 L 42.8 82.3 L 45.1 86.0 L 47.3 90.5 L 49.1 96.1 L 49.9 102.6 L 49.562833309173584 107.65749998092652 L 49.9 107.7 L 49.0 115.1 L 48.3 122.2 L 47.8 129.0 L 47.5 135.7 L 47.3 142.0 L 47.308219814300536 142.50140781402587 L 50.6 136.2 L 58.4 123.5 L 67.1 111.8 L 76.5 100.9 L 86.8 90.9 L 97.8 81.7 L 109.6 73.5 L 122.2 66.3 L 135.5 60.1 L 135.59310340881348 60.2758620262146 L 138.2 59.2 L 144.2 57.9 L 150.0 57.9 L 155.6 59.5 L 160.5 62.7 L 164.5 67.3 L 167.6 73.1 L 167.3 77.6 L 167.17333793640137 77.7228238105774 L 166.6 81.9 L 164.7 87.1 L 161.9 92.6 L 158.1 98.4 L 153.2 104.8 L 147.4 111.7 L 140.6 119.2 L 138.11764707565308 121.68235292434693 L 136.0 125.0 L 133.4 129.5 L 131.0 133.6 L 128.9 137.3 L 127.0 140.7 L 126.07386360168456 142.6140151977539 L 128.0 142.4 L 134.0 142.0 L 139.8 141.9 L 145.2 141.9 L 150.4 142.3 L 155.3 142.8 L 159.9 143.7 L 164.3 144.8 L 168.4 146.3 L 171.6 149.5 L 171.7 154.1 L 168.5 157.3 L 163.9 157.4 L 160.8 156.3 Z " />
</g>
</svg>
