<svg xmlns="http://www.w3.org/2000/svg" xmlns:xlink="http://www.w3.org/1999/xlink" version="1.1" baseProfile="full" viewBox="0 0 200 200" width="200" height="200">
<g fill="black">
<path d="M 146.5 42.5 L 143.1 42.0 L 138.8 41.6 L 133.7 41.4 L 127.8 41.3 L 121.0 41.4 L 113.5 41.5 L 105.2 41.6 L 103.51857013702393 41.618477249145506 L 101.85876779556274 41.822037887573245 L 104.2 42.7 L 106.5 43.8 L 108.7 45.2 L 110.8 46.9 L 112.0 51.3 L 109.8 55.3 L 109.19438199996948 55.46516857147217 L 109.5 57.7 L 110.8 70.5 L 111.7 84.1 L 111.97963047027588 92.09743242263794 L 124.1 91.8 L 141.7 91.4 L 141.9359447479248 91.39631338119507 L 145.8 91.0 L 152.6 90.4 L 157.53467741012574 90.05967741012573 L 158.7 89.1 L 160.7 88.2 L 163.0 87.6 L 165.4 87.6 L 168.0 88.0 L 170.5 88.8 L 173.1 90.1 L 175.7 91.7 L 178.3 93.7 L 179.9 98.0 L 178.0 102.2 L 173.7 103.7 L 169.5 101.8 L 169.3444444656372 101.5777777671814 L 167.3 101.8 L 165.7 101.2 L 162.6 100.5 L 158.3 100.0 L 152.8 99.7 L 146.1 99.4 L 129.7 99.4 L 119.9 99.5 L 112.21699962615966 99.6409725189209 L 112.4 113.0 L 112.2 127.7 L 111.5 142.3 L 110.5 156.5 L 109.1 170.2 L 107.4 183.0 L 104.9 186.8 L 100.5 187.9 L 96.6 185.5 L 95.54504890441895 181.18429098129272 L 94.5 180.7 L 92.2 177.6 L 89.8 174.6 L 87.3 171.6 L 84.7 168.6 L 82.0 165.6 L 79.2 162.6 L 76.3 159.6 L 73.4 156.5 L 70.4 153.3 L 67.3 150.3 L 68.3 148.8 L 72.3 150.7 L 76.3 152.7 L 80.1 154.8 L 83.8 157.1 L 87.3 159.5 L 90.8 162.0 L 94.1 164.5 L 97.3 167.2 L 97.35409393310547 167.24711408615113 L 98.6 155.5 L 99.6 141.6 L 100.2 127.4 L 100.4 112.9 L 100.21640834808349 99.77319660186768 L 97.7671233177185 99.79360733032226 L 93.5 100.2 L 80.2 101.4 L 68.3 102.5 L 57.8 103.3 L 48.8 104.0 L 43.41830739974976 104.42487049102783 L 41.6 106.3 L 37.1 106.5 L 33.7 104.7 L 30.8 102.7 L 28.2 100.5 L 26.1 98.1 L 24.4 95.5 L 23.2 92.8 L 22.5 90.0 L 22.3 87.3 L 22.7 84.6 L 23.0 81.9 L 24.8 82.0 L 25.0 84.4 L 26.1 86.5 L 27.3 88.2 L 28.6 89.6 L 30.1 90.9 L 31.8 92.0 L 33.7 92.9 L 35.0 93.43181819915772 L 35.0 93.0 L 41.0 93.2 L 48.4 93.3 L 57.4 93.3 L 67.8 93.2 L 79.7 93.0 L 93.0 92.6 L 99.9773892402649 92.4114218711853 L 99.7 84.7 L 98.8 71.5 L 97.6 59.1 L 96.0 47.9 L 96.3537672996521 47.843516159057614 L 96.2 47.7 L 94.5 46.4 L 92.4 45.2 L 90.2 43.9 L 89.20064058303834 43.38033313751221 L 85.0 43.9 L 76.2 45.0 L 68.2 45.9 L 62.682840251922606 46.51301774978638 L 61.7 48.3 L 57.3 49.6 L 53.8 48.7 L 51.349714279174805 47.704571437835696 L 49.2 47.9 L 49.14742298126221 46.64866704940796 L 47.7 45.9 L 45.2 44.1 L 43.0 42.0 L 41.2 39.7 L 39.9 37.2 L 39.1 34.5 L 38.3 29.1 L 40.0 28.7 L 41.0 31.0 L 42.5 32.8 L 44.1 34.3 L 45.8 35.4 L 47.5 36.2 L 48.727403450012204 36.65220127105713 L 48.7 36.0 L 60.4 36.0 L 67.5 35.9 L 75.5 35.7 L 84.4 35.5 L 94.1 35.2 L 104.8 34.8 L 116.2 34.5 L 123.6687258720398 34.31930503845215 L 127.2 33.8 L 132.44552526473998 33.026070022583006 L 133.7 32.5 L 136.7 31.1 L 139.8 30.1 L 142.8 29.5 L 145.9 29.4 L 149.0 29.7 L 152.1 30.6 L 155.1 31.8 L 157.9 33.6 L 160.6 35.8 L 161.9 40.2 L 159.9 44.2 L 155.5 45.6 L 151.55964603424073 43.581769943237305 L 150.2 43.7 L 149.0 43.1 Z " />
</g>
</svg>
