<svg xmlns="http://www.w3.org/2000/svg" xmlns:xlink="http://www.w3.org/1999/xlink" version="1.1" baseProfile="full" viewBox="0 0 200 200" width="200" height="200">
<g fill="black">
<path d="M 102.45 79.7 L 102.3 79.4 L 101.06591424942016 77.63702030181885 L 100.3 78.2 L 87.6 86.7 L 74.1 94.8 L 59.7 102.3 L 44.7 108.9 L 29.1 114.5 L 28.5 112.8 L 43.1 105.5 L 57.2 97.5 L 70.7 89.2 L 83.4 80.4 L 95.2 71.4 L 106.0 62.4 L 115.7 53.5 L 124.1 44.9 L 131.0 36.7 L 135.50743522644044 30.40659980773926 L 135.2 29.1 L 134.6 27.6 L 134.0 26.3 L 133.2 25.0 L 132.3 23.9 L 131.2 22.8 L 129.8 21.7 L 128.1 21.5 L 128.1 19.7 L 130.0 19.6 L 132.1 19.3 L 134.3 19.4 L 136.4 20.0 L 138.6 20.9 L 140.6 22.1 L 142.6 23.8 L 144.4 25.7 L 146.1 27.9 L 147.7 30.4 L 147.5 35.0 L 145.95332069396972 36.499810218811035 L 139.7 44.1 L 131.8 52.3 L 122.5 60.9 L 112.0 69.6 L 106.4152000427246 73.7050666809082 L 107.9 74.2 L 109.7 75.1 L 111.5 76.2 L 113.3 77.5 L 115.1 79.0 L 116.1 83.5 L 114.2 86.5875 L 114.2 152.4 L 113.7111701965332 153.54060287475585 L 125.1 153.4 L 136.8137541770935 153.33382062911988 L 139.1 153.1 L 146.8 152.4 L 149.11340208053588 152.19587631225585 L 151.7 151.4 L 155.4 150.5 L 159.0 149.9 L 162.6 149.6 L 166.0 149.7 L 169.3 150.1 L 172.5 150.9 L 175.5 152.1 L 178.4 153.7 L 180.5 157.8 L 179.3 162.1 L 175.2 164.2 L 170.8 163.0 L 170.5966941833496 162.76280994415282 L 168.7 163.1 L 166.9 162.5 L 163.7 162.0 L 159.2 161.5 L 153.7 161.1 L 147.1 160.9 L 139.4 160.7 L 130.6 160.6 L 120.8 160.6 L 110.0 160.5 L 105.24423961639404 160.42073736190795 L 94.4 161.3 L 81.1 162.4 L 69.2 163.3 L 58.8 164.0 L 49.8 164.6 L 43.888888931274415 164.9888889312744 L 43.0 166.1 L 38.4 166.7 L 35.2 165.2 L 32.3 163.6 L 29.7 161.8 L 27.5 159.9 L 25.7 157.8 L 24.4 155.6 L 23.6 153.3 L 23.4 151.0 L 23.7 148.8 L 24.0 146.7 L 25.8 146.9 L 25.9 148.6 L 26.9 149.9 L 28.0 151.0 L 29.3 151.8 L 30.7 152.5 L 32.3 153.1 L 34.2 153.7 L 36.0 154.21428575515748 L 36.0 153.5 L 42.0 153.7 L 49.5 153.9 L 58.5 154.0 L 68.9 154.0 L 80.8 153.9 L 94.1 153.8 L 102.74990406036378 153.6831093788147 L 102.2 152.4 L 102.2 79.7 Z " />
</g>
</svg>
