<svg xmlns="http://www.w3.org/2000/svg" xmlns:xlink="http://www.w3.org/1999/xlink" version="1.1" baseProfile="full" viewBox="0 0 200 200" width="200" height="200">
<g fill="black">
<path d="M 35.9 146.9 L 33.9 135.9 L 32.8 124.1 L 32.4 111.5 L 32.8 98.1 L 34.0 84.0 L 35.9 69.0 L 38.6 53.2 L 42.07238655090332 36.73096647262573 L 41.5 35.3 L 40.6 33.8 L 39.4 32.2 L 37.9 30.7 L 36.0 29.1 L 33.7 28.1 L 34.2 26.4 L 36.8 27.0 L 39.5 27.3 L 42.0 28.0 L 44.4 29.0 L 46.6 30.2 L 48.7 31.8 L 50.6 33.7 L 52.2 36.0 L 53.5 38.4 L 54.5 41.1 L 53.3 45.5 L 52.37993459701538 46.06619415283203 L 50.4 55.5 L 47.8 70.8 L 45.9 85.2 L 44.8 98.8 L 44.4 111.5 L 44.7 123.4 L 45.8 134.3 L 47.46572971343994 143.55405406951905 L 49.4 140.1 L 52.8 134.4 L 56.9 128.1 L 61.6 121.2 L 67.0 113.6 L 73.2 105.5 L 74.7 106.4 L 70.3 115.6 L 66.2 123.9 L 62.6 131.3 L 59.5 138.0 L 57.0 143.8 L 55.0 148.9 L 53.6 153.1 L 52.9 156.4 L 52.7 158.6 L 52.9 159.3 L 52.291108989715575 159.36651754379272 L 53.2 161.8 L 53.3 166.3 L 50.2 169.7 L 45.6 169.8 L 42.2 166.6 L 38.6 157.2 Z M 134.4 41.0 L 127.2 40.9 L 121.82828950881958 41.051315784454346 L 122.2 41.2 L 124.6 42.3 L 126.8 43.4 L 128.8 44.7 L 130.7 46.2 L 132.4 47.8 L 134.0 49.6 L 134.2 54.1 L 133.33932847976683 55.1387414932251 L 133.8 62.1 L 134.4 75.5 L 134.6133858680725 84.88897638320923 L 142.6 83.5 L 152.1 81.6 L 161.7 79.4 L 171.6 76.8 L 176.1 77.6 L 178.9 81.2 L 178.1 85.8 L 174.4 88.5 L 164.1 90.5 L 154.0 92.2 L 144.1 93.4 L 134.7439889907837 94.37458448410034 L 134.8 101.6 L 134.6 114.4 L 134.1 126.9 L 133.3 139.2 L 132.2 151.3 L 130.9 163.2 L 129.52956142425538 173.22133188247682 L 129.9 174.4 L 129.36156978607178 174.44977083206177 L 129.3 174.9 L 126.9 178.8 L 122.5 179.9 L 118.6 177.5 L 118.09774131774903 175.49096508026122 L 118.0 175.5 L 118.0307692527771 175.22307691574096 L 117.5 173.1 L 117.5457317352295 172.7524390220642 L 117.5 172.6 L 116.3 169.9 L 114.5 166.5 L 111.9 162.6 L 108.8 158.3 L 105.0 153.4 L 100.6 148.0 L 95.7 142.1 L 90.3 135.6 L 91.6 134.3 L 98.4 139.4 L 104.4 144.3 L 109.7 148.9 L 114.4 153.2 L 118.5 157.3 L 119.38515253067017 158.26325426101684 L 120.3 150.1 L 121.3 138.3 L 122.1 126.3 L 122.6 114.0 L 122.8 101.6 L 122.74785594940185 94.92556676864623 L 115.9 95.0 L 114.59861898422241 94.95613327026368 L 113.5 95.1 L 105.0 95.9 L 96.4 96.2 L 87.9 96.0 L 79.4 95.4 L 70.8 94.4 L 67.0 91.9 L 66.0 87.4 L 68.5 83.6 L 73.0 82.6 L 80.9 84.1 L 88.8 85.3 L 96.8 86.1 L 104.8 86.6 L 112.9 86.7 L 121.1 86.4 L 122.64156284332276 86.28720273971558 L 122.4 75.9 L 121.8 62.8 L 121.0 49.4 L 121.0594108581543 49.39550676345825 L 120.1 48.0 L 118.7 46.3 L 117.0 44.5 L 115.2 42.7 L 113.8875 41.45 L 113.0 41.5 L 105.9 42.2 L 98.8 43.1 L 91.7 44.1 L 84.5 45.3 L 77.2 46.5 L 76.6 44.8 L 83.4 41.6 L 90.3 38.9 L 97.4 36.6 L 104.6 34.7 L 111.9 33.1 L 119.2 31.9 L 126.6 30.9 L 134.1 30.2 L 141.6 29.9 L 149.3 29.8 L 153.4 31.8 L 154.9 36.1 L 152.9 40.2 L 148.7 41.8 L 141.5 41.3 Z " />
</g>
</svg>
