<svg xmlns="http://www.w3.org/2000/svg" xmlns:xlink="http://www.w3.org/1999/xlink" version="1.1" baseProfile="full" viewBox="0 0 200 200" width="200" height="200">
<g fill="black">
<path d="M 45.0 177.9 L 41.6 175.5 L 38.2 172.7 L 36.5 171.1 L 34.9 169.5 L 33.2 167.7 L 31.3 166.2 L 32.3 164.7 L 34.4 165.8 L 36.7 166.3 L 38.9 166.8 L 41.0 167.3 L 43.0 167.6 L 44.9 167.9 L 45.13581399917602 167.93930234909058 L 58.8 163.6 L 73.2 158.9 L 87.3 154.3 L 93.0 152.41366910934448 L 93.0 39.06999998092651 L 92.7 38.5 L 91.4 36.7 L 89.8 34.9 L 87.9 33.2 L 85.6 31.6 L 82.9 30.0 L 79.8 29.0 L 80.1 27.2 L 83.5 27.6 L 86.9 27.8 L 90.1 28.4 L 93.2 29.5 L 96.1 30.9 L 98.8 32.6 L 101.2 34.8 L 103.4 37.3 L 104.51379308700561 39.0 L 105.0 39.0 L 105.0 39.74210529327392 L 105.3 40.2 L 106.9 43.4 L 106.3 47.9 L 105.0 48.97714281082153 L 105.0 148.4333333015442 L 114.7 145.2 L 128.0 140.8 L 141.0 136.4 L 153.8 132.1 L 166.3 128.0 L 178.6 124.1 L 179.3 125.8 L 167.7 131.5 L 155.7 137.1 L 143.4 142.5 L 130.7 147.9 L 117.7 153.2 L 104.3 158.5 L 90.7 163.8 L 76.7 169.1 L 62.4 174.3 L 54.69978590011597 177.1145609855652 L 53.0 179.3 L 48.5 179.9 L 46.7 179.0 Z " />
</g>
</svg>
