<svg xmlns="http://www.w3.org/2000/svg" xmlns:xlink="http://www.w3.org/1999/xlink" version="1.1" baseProfile="full" viewBox="0 0 200 200" width="200" height="200">
<g fill="black">
<path d="M 36.1 26.1 L 164.8 26.1 L 170.8 21.1 L 181.8 30.1 L 176.8 34.1 L 176.8 178.8 L 164.8 184.8 L 164.8 174.8 L 36.1 174.8 L 36.1 181.8 L 24.1 187.8 L 24.1 20.1 Z M 36.1 30.1 L 36.1 170.8 L 164.8 170.8 L 164.8 30.1 Z M 151.5 147.8 L 150.1 149.9 L 148.4 151.8 L 146.5 153.4 L 144.4 154.7 L 142.1 155.7 L 139.7 156.3 L 137.3 156.7 L 134.7 156.9 L 134.7 150.9 L 122.7 147.9 L 122.7 144.9 L 134.7 144.9 L 136.0 144.8 L 137.1 144.6 L 138.1 144.4 L 139.5 143.6 L 140.1 143.1 L 140.6 142.5 L 141.1 141.7 L 141.7 140.7 L 142.1 139.5 L 142.6 137.8 L 143.1 135.7 L 143.5 133.2 L 143.9 130.2 L 144.2 126.9 L 144.5 123.2 L 144.7 119.1 L 144.8 114.6 L 144.9 109.7 L 144.9615385055542 106.5 L 97.9 106.5 L 97.9 162.3 L 85.9 168.3 L 85.9 106.5 L 39.1 106.5 L 39.1 102.5 L 85.9 102.5 L 85.9 67.8 L 48.8 67.8 L 48.8 63.8 L 85.9 63.8 L 85.9 33.6 L 97.9 35.6 L 100.9 37.6 L 97.9 39.4 L 97.9 63.8 L 124.1 63.8 L 130.1 58.8 L 141.1 67.8 L 136.1 70.8 L 134.89702634811403 71.30123901367188 L 133.49018564224244 102.5 L 145.0 102.5 L 151.0 97.5 L 162.0 106.5 L 157.0 109.5 L 156.90668745040892 109.53888025283814 L 156.9 109.9 L 156.8 114.9 L 156.7 119.6 L 156.5 123.9 L 156.2 127.9 L 155.8 131.6 L 155.4 134.9 L 154.9 138.0 L 154.3 140.7 L 153.5 143.2 L 152.6 145.6 Z M 97.9 67.8 L 97.9 102.5 L 121.44470281600952 102.5 L 123.95529718399048 67.8 Z M 143.5 59.4 L 142.5 57.5 L 141.1 55.5 L 139.2 53.4 L 137.0 51.2 L 134.3 48.9 L 131.2 46.5 L 127.8 44.1 L 123.8 41.9 L 124.4 40.2 L 128.9 41.6 L 133.1 42.7 L 137.0 44.1 L 140.6 45.6 L 143.9 47.2 L 146.9 49.1 L 149.5 51.1 L 151.9 53.4 L 154.0 55.9 L 155.6 58.6 L 155.3 63.2 L 152.0 66.3 L 147.4 66.0 L 144.3 62.7 L 144.1 61.1 Z " />
</g>
</svg>
