<?xml version="1.0" standalone="no"?>
<!DOCTYPE svg PUBLIC "-//W3C//DTD SVG 20010904//EN"
 "http://www.w3.org/TR/2001/REC-SVG-20010904/DTD/svg10.dtd">
<svg version="1.0" xmlns="http://www.w3.org/2000/svg"
 width="410.000000pt" height="410.000000pt" viewBox="0 0 410.000000 410.000000"
 preserveAspectRatio="xMidYMid meet">
<metadata>
Created by potrace 1.14, written by Peter Selinger 2001-2017
</metadata>
<g transform="translate(0.000000,410.000000) scale(0.100000,-0.100000)"
fill="#000000" stroke="none">
<path d="M0 2425 l0 -1675 138 0 138 0 2 37 c2 20 4 39 6 42 2 3 -1 17 -6 31
-10 25 -19 142 -18 235 0 37 -2 46 -10 35 -8 -11 -10 -2 -9 35 1 28 -2 71 -6
97 -5 34 -4 48 4 48 6 0 11 16 11 38 l-1 37 -15 -25 c-14 -24 -15 -22 -11 40
2 36 0 112 -4 170 -9 118 -12 565 -5 650 3 30 6 161 7 290 1 223 5 275 18 237
3 -9 6 33 5 93 -1 145 12 168 32 56 5 -28 4 -37 -5 -32 -7 5 -9 1 -5 -8 3 -9
11 -16 16 -16 6 0 8 -9 5 -20 -3 -10 0 -21 7 -24 7 -3 7 -5 -2 -5 -7 -1 -10
-6 -6 -12 3 -6 0 -15 -7 -20 -11 -7 -9 -13 9 -27 21 -17 23 -26 25 -140 1 -67
5 -122 10 -122 4 0 8 6 8 13 1 6 5 -10 10 -38 5 -27 6 -63 3 -78 -3 -15 -1
-34 5 -41 7 -8 10 -26 7 -40 -3 -14 0 -26 5 -26 5 0 9 6 10 13 0 6 7 -17 15
-53 8 -36 13 -74 12 -85 -1 -11 3 -29 9 -40 6 -11 15 -53 19 -94 4 -48 10 -68
16 -59 6 9 8 6 7 -12 -1 -14 2 -36 8 -50 14 -34 43 -154 43 -179 0 -12 5 -21
10 -21 6 0 10 -13 10 -29 0 -17 5 -33 10 -36 6 -4 10 -14 8 -23 -1 -10 4 -27
10 -40 7 -12 11 -26 8 -31 -3 -5 1 -14 9 -21 8 -7 15 -21 15 -31 0 -11 4 -19
9 -19 6 0 13 -20 17 -45 3 -25 10 -48 15 -51 5 -3 9 -14 9 -25 0 -10 5 -19 10
-19 6 0 10 -7 10 -16 0 -18 84 -196 111 -235 10 -14 15 -29 11 -33 -3 -4 -1
-10 5 -14 11 -7 26 -30 79 -124 37 -65 56 -71 38 -11 -8 25 -19 52 -25 59 -6
7 -8 17 -5 23 8 13 -4 42 -15 35 -5 -3 -9 6 -9 19 0 13 -3 27 -7 31 -5 4 -8
11 -8 14 -1 13 -46 147 -55 164 -5 10 -7 24 -4 33 3 8 1 15 -5 15 -6 0 -11 8
-11 18 0 10 -3 22 -7 25 -11 12 -43 110 -43 134 0 12 -4 25 -10 28 -5 3 -10
19 -10 35 0 16 -5 32 -11 35 -6 4 -8 14 -5 22 4 9 2 21 -2 27 -11 13 -48 115
-48 134 -2 26 -4 33 -12 28 -12 -7 -64 197 -61 236 2 18 7 38 12 45 5 7 4 19
-2 30 -9 16 -10 15 -11 -9 0 -16 -4 -28 -10 -28 -15 0 -32 40 -27 66 2 13 0
21 -4 18 -5 -3 -9 6 -9 21 0 14 -4 33 -9 43 -10 18 -26 107 -24 132 1 8 -3 18
-9 21 -5 4 -11 19 -13 35 -1 16 -8 42 -14 57 -6 16 -8 33 -5 38 3 6 0 16 -6
24 -7 9 -9 26 -5 45 5 23 3 30 -7 28 -8 -2 -14 9 -16 32 -2 19 -8 40 -12 45
-10 12 -10 11 -11 143 0 51 -4 92 -10 92 -5 0 -9 -6 -10 -12 0 -7 -7 12 -15
42 -8 30 -14 69 -12 85 1 17 -2 37 -7 44 -4 8 -9 35 -10 60 -1 25 -10 91 -19
146 -10 59 -14 121 -11 153 4 31 2 52 -4 52 -5 0 -10 8 -11 18 -1 9 -3 40 -5
69 -1 28 -9 93 -16 143 -12 89 -7 356 7 408 6 22 6 22 -115 22 l-121 0 0
-1675z"/>
<path d="M311 4008 c61 -143 117 -256 157 -317 19 -31 51 -85 70 -121 38 -72
63 -115 137 -225 28 -42 60 -95 73 -118 12 -22 22 -37 22 -32 0 6 15 -12 32
-40 18 -27 31 -56 30 -63 -2 -7 3 -11 10 -10 6 2 12 -2 13 -9 0 -7 7 -18 16
-25 27 -22 56 -72 52 -88 -3 -11 -2 -12 4 -2 12 16 55 -41 47 -63 -4 -10 -2
-14 8 -10 9 4 31 -18 61 -60 26 -36 48 -68 49 -73 1 -4 19 -23 40 -43 21 -20
38 -41 38 -48 0 -6 15 -27 33 -45 120 -125 247 -272 247 -287 0 -5 6 -9 13 -9
13 0 57 -36 132 -109 22 -21 105 -94 185 -162 80 -68 151 -130 158 -137 8 -7
29 -19 48 -27 19 -8 34 -21 34 -29 0 -8 10 -16 23 -18 14 -2 21 -9 19 -20 -2
-12 3 -15 18 -11 13 4 20 0 20 -10 0 -8 12 -18 26 -21 16 -4 24 -12 21 -20 -3
-8 0 -13 6 -12 7 0 12 -2 12 -5 0 -14 38 -48 47 -43 12 8 48 -25 48 -43 0 -7
13 -16 30 -19 26 -6 64 -34 45 -34 -4 0 -2 -7 5 -15 10 -13 9 -15 -11 -15 -15
0 -19 -3 -12 -8 8 -5 3 -11 -13 -19 -22 -10 -24 -10 -14 3 8 9 9 14 2 14 -6 0
-14 -5 -17 -10 -4 -6 -24 -22 -46 -36 -22 -13 -49 -34 -59 -44 -19 -19 -36
-24 -73 -20 -10 1 -16 -4 -15 -12 2 -8 -5 -12 -20 -10 -25 2 -56 -21 -44 -33
4 -4 0 -6 -8 -5 -28 4 -37 0 -80 -34 -24 -19 -49 -32 -57 -29 -7 3 -13 1 -13
-5 0 -18 -67 -51 -91 -45 -18 5 -21 3 -16 -10 3 -9 0 -18 -9 -21 -9 -3 -12 -1
-9 4 3 6 1 10 -4 10 -6 0 -11 -6 -11 -13 0 -7 -14 -21 -30 -30 -32 -19 -41
-13 -12 9 9 7 13 13 7 13 -18 0 -47 -27 -40 -38 3 -6 0 -9 -8 -6 -7 3 -27 -2
-43 -11 -24 -13 -25 -15 -6 -11 19 5 21 3 11 -9 -7 -8 -18 -13 -26 -10 -8 3
-11 1 -8 -4 3 -6 -4 -10 -17 -10 -29 0 -52 -15 -44 -28 9 -15 -42 -52 -62 -45
-12 3 -13 2 -4 -4 9 -7 6 -15 -14 -34 -14 -13 -33 -24 -42 -24 -9 0 -17 -4
-16 -10 0 -5 -12 -23 -27 -39 -26 -28 -28 -28 -22 -6 6 22 5 22 -25 -5 -32
-29 -37 -50 -6 -24 15 12 17 12 12 -1 -3 -9 -16 -14 -32 -13 -30 2 -30 0 -14
-30 10 -19 9 -21 -4 -9 -10 8 -19 9 -22 3 -3 -5 0 -11 6 -14 9 -3 6 -10 -9
-22 -13 -9 -23 -23 -23 -31 0 -8 -6 -14 -14 -14 -7 0 -16 -10 -19 -21 -4 -15
-11 -20 -21 -16 -19 7 -22 -8 -4 -19 6 -4 14 -2 16 4 4 14 79 16 84 3 4 -11
784 -18 795 -8 3 4 -11 7 -33 8 -21 0 -33 3 -26 6 6 2 10 8 7 13 -9 15 74 16
136 1 57 -14 59 -15 37 -27 -23 -13 -23 -13 -1 -14 12 0 24 4 28 10 3 5 12 7
20 3 8 -3 15 0 15 6 0 6 5 11 11 11 5 0 7 -4 4 -10 -4 -6 5 -10 19 -10 17 0
26 -6 26 -16 0 -10 8 -15 23 -14 43 4 68 0 62 -10 -7 -12 73 -13 195 -3 78 7
81 8 40 14 l-45 6 41 1 c25 1 46 -4 53 -12 10 -12 62 -14 279 -15 147 -1 471
-4 720 -7 l452 -7 0 1717 0 1716 -1914 0 -1915 0 40 -92z m1897 -2303 c-3 -3
-9 2 -12 12 -6 14 -5 15 5 6 7 -7 10 -15 7 -18z m-218 -329 c0 -2 -7 -7 -16
-10 -8 -3 -12 -2 -9 4 6 10 25 14 25 6z m-450 -250 c0 -3 -4 -8 -10 -11 -5 -3
-10 -1 -10 4 0 6 5 11 10 11 6 0 10 -2 10 -4z m-310 -346 c0 -5 -5 -10 -11
-10 -5 0 -7 5 -4 10 3 6 8 10 11 10 2 0 4 -4 4 -10z m523 -37 c-7 -2 -21 -2
-30 0 -10 3 -4 5 12 5 17 0 24 -2 18 -5z"/>
<path d="M770 3156 c0 -9 5 -16 10 -16 6 0 10 4 10 9 0 6 -4 13 -10 16 -5 3
-10 -1 -10 -9z"/>
<path d="M280 2344 c0 -8 5 -12 10 -9 6 4 8 11 5 16 -9 14 -15 11 -15 -7z"/>
<path d="M1405 1050 c-3 -5 -1 -10 4 -10 6 0 11 5 11 10 0 6 -2 10 -4 10 -3 0
-8 -4 -11 -10z"/>
<path d="M1145 790 c-3 -5 -1 -10 4 -10 6 0 11 5 11 10 0 6 -2 10 -4 10 -3 0
-8 -4 -11 -10z"/>
<path d="M2086 728 c3 -4 14 -8 25 -8 11 0 18 4 14 9 -3 6 -14 9 -25 8 -10 -1
-16 -5 -14 -9z"/>
<path d="M930 709 c0 -5 5 -7 10 -4 6 3 10 8 10 11 0 2 -4 4 -10 4 -5 0 -10
-5 -10 -11z"/>
<path d="M906 691 c-8 -12 24 -45 34 -35 2 3 0 8 -6 12 -6 4 -13 14 -16 22 -3
11 -6 11 -12 1z"/>
<path d="M2573 663 c15 -2 37 -2 50 0 12 2 0 4 -28 4 -27 0 -38 -2 -22 -4z"/>
<path d="M840 645 c-11 -13 -10 -14 4 -9 9 3 16 10 16 15 0 13 -6 11 -20 -6z"/>
<path d="M1065 650 c-3 -5 -1 -10 4 -10 6 0 11 5 11 10 0 6 -2 10 -4 10 -3 0
-8 -4 -11 -10z"/>
<path d="M790 610 c-8 -5 -12 -11 -9 -14 3 -3 14 1 25 9 21 16 8 20 -16 5z"/>
<path d="M702 548 c-22 -18 -64 -50 -92 -70 -29 -21 -47 -38 -41 -38 13 0 81
47 171 119 14 11 20 20 13 21 -6 0 -29 -15 -51 -32z"/>
<path d="M506 395 c-9 -14 -12 -25 -7 -25 5 0 16 11 25 25 9 14 12 25 7 25 -5
0 -16 -11 -25 -25z"/>
<path d="M420 310 c0 -5 5 -10 10 -10 6 0 10 5 10 10 0 6 -4 10 -10 10 -5 0
-10 -4 -10 -10z"/>
</g>
</svg>
